<?xml version="1.0" encoding="utf-8"?>
<!-- Generator: Adobe Illustrator 26.5.0, SVG Export Plug-In . SVG Version: 6.00 Build 0)  -->
<svg version="1.1" id="Layer_1" xmlns="http://www.w3.org/2000/svg" xmlns:xlink="http://www.w3.org/1999/xlink" x="0px" y="0px"
	 viewBox="0 0 50 50" style="enable-background:new 0 0 50 50;" xml:space="preserve">
<style type="text/css">
	.st0{fill:none;stroke:#222222;stroke-width:2.0833;stroke-linecap:round;}
	.st1{fill:none;}
</style>
<g>
	<path class="st0" d="M14.58,10.42h4.17c1.15,0,2.08,0.93,2.08,2.08v25c0,1.15-0.93,2.08-2.08,2.08h-4.17
		c-1.15,0-2.08-0.93-2.08-2.08v-25C12.5,11.35,13.43,10.42,14.58,10.42z"/>
	<path class="st0" d="M31.25,10.42h4.17c1.15,0,2.08,0.93,2.08,2.08v25c0,1.15-0.93,2.08-2.08,2.08h-4.17
		c-1.15,0-2.08-0.93-2.08-2.08v-25C29.17,11.35,30.1,10.42,31.25,10.42z"/>
	<rect class="st1" width="50" height="50"/>
</g>
</svg>
