<?xml version="1.0" encoding="utf-8"?>
<!-- Generator: Adobe Illustrator 26.5.0, SVG Export Plug-In . SVG Version: 6.00 Build 0)  -->
<svg version="1.1" id="Layer_1" xmlns="http://www.w3.org/2000/svg" xmlns:xlink="http://www.w3.org/1999/xlink" x="0px" y="0px"
	 viewBox="0 0 50 50" style="enable-background:new 0 0 50 50;" xml:space="preserve">
<style type="text/css">
	.st0{fill:none;}
	.st1{fill:none;stroke:#33363F;stroke-width:4.1667;stroke-linecap:round;}
</style>
<g>
	<rect class="st0" width="50" height="50"/>
	<path class="st1" d="M14.6,10.4h4.2c1.2,0,2.1,0.9,2.1,2.1v25c0,1.2-0.9,2.1-2.1,2.1h-4.2c-1.2,0-2.1-0.9-2.1-2.1v-25
		C12.5,11.3,13.4,10.4,14.6,10.4z"/>
	<path class="st1" d="M31.2,10.4h4.2c1.2,0,2.1,0.9,2.1,2.1v25c0,1.2-0.9,2.1-2.1,2.1h-4.2c-1.2,0-2.1-0.9-2.1-2.1v-25
		C29.2,11.3,30.1,10.4,31.2,10.4z"/>
</g>
</svg>
